<svg width="48" height="48" viewBox="0 0 48 48" fill="none" xmlns="http://www.w3.org/2000/svg">
<path d="M20.4385 20.4053C18.9263 20.4053 17.4481 19.9821 16.1909 19.1893C14.9337 18.3965 13.9541 17.2698 13.3759 15.9516C12.7977 14.6334 12.647 13.183 12.9429 11.784C13.2387 10.3849 13.9678 9.10014 15.0378 8.09213C16.1079 7.08413 17.4709 6.39822 18.9543 6.1212C20.4377 5.84418 21.9748 5.9885 23.3713 6.5359C24.7677 7.08329 25.9606 8.00916 26.7991 9.19635C27.6376 10.3835 28.084 11.7787 28.0818 13.2053C28.0758 15.115 27.2682 16.9446 25.8358 18.294C24.4034 19.6433 22.4627 20.4025 20.4385 20.4053ZM20.4385 8.12795C19.374 8.12795 18.3335 8.42573 17.4484 8.98364C16.5633 9.54154 15.8735 10.3345 15.4662 11.2623C15.0588 12.19 14.9522 13.2109 15.1599 14.1958C15.3676 15.1807 15.8802 16.0854 16.6328 16.7955C17.3855 17.5056 18.3445 17.9891 19.3885 18.1851C20.4325 18.381 21.5146 18.2804 22.4981 17.8961C23.4815 17.5118 24.322 16.8611 24.9134 16.0261C25.5048 15.1911 25.8204 14.2095 25.8204 13.2053C25.8204 11.8587 25.2534 10.5673 24.2441 9.61507C23.2348 8.66288 21.8659 8.12795 20.4385 8.12795Z" fill="#57CC99"/>
<path d="M22.4058 38.4C22.1587 38.1668 21.968 37.8858 21.847 37.5765C21.726 37.2671 21.6775 36.9367 21.7048 36.608H8.3629V30.4426C9.96607 28.8288 11.9106 27.5506 14.0706 26.6906C16.2306 25.8307 18.558 25.4083 20.902 25.4506H21.7161C21.6642 25.093 21.7004 24.7289 21.822 24.3866C21.9436 24.0444 22.1472 23.7332 22.4171 23.4773L22.5528 23.36C22.0213 23.36 21.4221 23.296 20.902 23.296C18.1436 23.2342 15.4052 23.7514 12.8846 24.8103C10.3641 25.8692 8.12447 27.4432 6.3277 29.4186C6.18091 29.6033 6.10156 29.8278 6.10156 30.0586V36.608C6.10156 37.1738 6.33981 37.7164 6.76389 38.1165C7.18797 38.5165 7.76315 38.7413 8.3629 38.7413H22.7224L22.4058 38.4Z" fill="#57CC99"/>
<path d="M41.9212 29.4826L39.6598 28.832C39.4982 28.3102 39.2784 27.806 39.004 27.328L40.1347 25.344C40.1715 25.2646 40.1803 25.1762 40.16 25.0918C40.1396 25.0073 40.0912 24.9312 40.0216 24.8746L38.3822 23.328C38.3202 23.2647 38.2374 23.2229 38.1471 23.2093C38.0569 23.1958 37.9644 23.2113 37.8847 23.2533L35.8042 24.32C35.292 24.0483 34.7498 23.8301 34.1874 23.6693L33.4977 21.536C33.4684 21.4574 33.4129 21.39 33.3395 21.3439C33.2661 21.2977 33.1787 21.2753 33.0906 21.28H30.7728C30.6837 21.279 30.5968 21.3056 30.5253 21.3557C30.4539 21.4058 30.4018 21.4766 30.377 21.5573L29.6873 23.6906C29.121 23.8461 28.5749 24.0607 28.0592 24.3306L26.0014 23.264C25.9233 23.2227 25.8327 23.2077 25.7445 23.2212C25.6562 23.2348 25.5753 23.2762 25.5152 23.3386L23.8418 24.8746C23.7797 24.9363 23.7398 25.0148 23.7276 25.099C23.7155 25.1832 23.7317 25.2689 23.7739 25.344L24.9046 27.2853C24.6056 27.7661 24.3665 28.278 24.1923 28.8106L21.931 29.4506C21.8454 29.474 21.7704 29.5231 21.7173 29.5905C21.6642 29.658 21.636 29.74 21.637 29.824V32.0106C21.6437 32.0877 21.6755 32.1609 21.7282 32.2201C21.7809 32.2793 21.8517 32.3217 21.931 32.3413L24.1923 32.992C24.3594 33.5152 24.5869 34.0196 24.8707 34.496L23.74 36.5333C23.6969 36.6063 23.6802 36.6906 23.6924 36.7734C23.7047 36.8562 23.7452 36.9329 23.8079 36.992L25.4473 38.5386C25.5114 38.5989 25.5939 38.6386 25.6833 38.652C25.7726 38.6654 25.8641 38.6518 25.9448 38.6133L28.0592 37.5466C28.5623 37.8019 29.093 38.0058 29.6421 38.1546L30.3205 40.288C30.3483 40.3669 30.4012 40.4359 30.472 40.4855C30.5428 40.5351 30.6281 40.563 30.7162 40.5653H33.0341C33.1227 40.5646 33.2088 40.5373 33.2799 40.4875C33.351 40.4376 33.4035 40.3678 33.4298 40.288L34.1196 38.1013C34.6614 37.9523 35.1845 37.7485 35.6799 37.4933L37.8168 38.56C37.8954 38.5994 37.9855 38.6134 38.0733 38.5999C38.1611 38.5864 38.2418 38.5462 38.303 38.4853L40.0216 37.0346C40.0678 36.972 40.0926 36.8976 40.0926 36.8213C40.0926 36.745 40.0678 36.6706 40.0216 36.608L38.891 34.6026C39.1654 34.1321 39.3853 33.635 39.5467 33.12L41.8081 32.4693C41.8936 32.446 41.9687 32.3968 42.0218 32.3294C42.0749 32.262 42.1031 32.18 42.1021 32.096V29.856C42.1124 29.784 42.1009 29.7107 42.0689 29.6446C42.0369 29.5785 41.9857 29.5223 41.9212 29.4826ZM31.9374 34.4746C31.1895 34.4768 30.4578 34.2693 29.835 33.8787C29.2123 33.488 28.7265 32.9317 28.4393 32.2803C28.152 31.6289 28.0763 30.9116 28.2217 30.2196C28.367 29.5275 28.7269 28.8917 29.2557 28.3928C29.7846 27.8939 30.4585 27.5544 31.1921 27.4173C31.9257 27.2801 32.686 27.3516 33.3765 27.6226C34.067 27.8935 34.6567 28.3518 35.0708 28.9393C35.4849 29.5268 35.7047 30.2171 35.7025 30.9226C35.6995 31.8638 35.3019 32.7657 34.5964 33.4312C33.891 34.0967 32.935 34.4718 31.9374 34.4746Z" fill="#FB8500"/>
<circle cx="24" cy="24" r="22.5" stroke="#023047" stroke-width="3"/>
</svg>
