<svg width="187" height="49" viewBox="0 0 187 49" fill="none" xmlns="http://www.w3.org/2000/svg">
<circle cx="174.5" cy="24.5" r="11.5" fill="#D9D9D9" stroke="#FFFDFD" stroke-width="2"/>
<path d="M64.897 31V20.47H66.34V31H64.897ZM68.0436 31V20.47H69.0446L72.0346 27.464V20.47H73.2566V31H72.3206L69.2916 23.811V31H68.0436ZM74.3398 31L76.5758 20.47H77.9928L80.2418 31H78.8508L78.3698 28.348H76.2248L75.7178 31H74.3398ZM76.4198 27.295H78.1748L77.2908 22.55L76.4198 27.295ZM83.8984 31.117C83.1531 31.117 82.5724 30.961 82.1564 30.649C81.7491 30.337 81.4631 29.9167 81.2984 29.388C81.1424 28.8593 81.0644 28.27 81.0644 27.62V23.902C81.0644 23.1913 81.1424 22.5717 81.2984 22.043C81.4631 21.5143 81.7491 21.107 82.1564 20.821C82.5724 20.5263 83.1531 20.379 83.8984 20.379C84.5571 20.379 85.0771 20.5003 85.4584 20.743C85.8484 20.9857 86.1258 21.3323 86.2904 21.783C86.4638 22.2337 86.5504 22.7753 86.5504 23.408V24.24H85.1594V23.499C85.1594 23.109 85.1378 22.7667 85.0944 22.472C85.0598 22.1687 84.9558 21.9347 84.7824 21.77C84.6091 21.6053 84.3188 21.523 83.9114 21.523C83.4954 21.523 83.1921 21.614 83.0014 21.796C82.8108 21.9693 82.6851 22.2207 82.6244 22.55C82.5724 22.8707 82.5464 23.2477 82.5464 23.681V27.854C82.5464 28.3827 82.5898 28.803 82.6764 29.115C82.7631 29.4183 82.9061 29.635 83.1054 29.765C83.3048 29.895 83.5734 29.96 83.9114 29.96C84.3101 29.96 84.5961 29.8733 84.7694 29.7C84.9428 29.518 85.0511 29.271 85.0944 28.959C85.1378 28.647 85.1594 28.283 85.1594 27.867V27.087H86.5504V27.867C86.5504 28.5083 86.4724 29.076 86.3164 29.57C86.1604 30.0553 85.8918 30.4367 85.5104 30.714C85.1291 30.9827 84.5918 31.117 83.8984 31.117ZM89.1069 31V21.562H87.3259V20.47H92.3049V21.562H90.5759V31H89.1069ZM93.398 31V20.47H94.841V31H93.398ZM98.3776 31L96.0246 20.47H97.4026L99.0666 28.231L100.653 20.47H101.992L99.6646 31H98.3776ZM105.698 31.117C104.987 31.117 104.419 30.9783 103.995 30.701C103.57 30.4237 103.267 30.0293 103.085 29.518C102.903 28.998 102.812 28.3913 102.812 27.698V23.707C102.812 23.0137 102.903 22.42 103.085 21.926C103.275 21.4233 103.579 21.042 103.995 20.782C104.419 20.5133 104.987 20.379 105.698 20.379C106.408 20.379 106.972 20.5133 107.388 20.782C107.804 21.0507 108.103 21.432 108.285 21.926C108.475 22.42 108.571 23.0137 108.571 23.707V27.711C108.571 28.3957 108.475 28.9937 108.285 29.505C108.103 30.0163 107.804 30.415 107.388 30.701C106.972 30.9783 106.408 31.117 105.698 31.117ZM105.698 29.96C106.088 29.96 106.382 29.882 106.582 29.726C106.781 29.5613 106.915 29.336 106.985 29.05C107.054 28.7553 107.089 28.413 107.089 28.023V23.408C107.089 23.018 107.054 22.6843 106.985 22.407C106.915 22.121 106.781 21.9043 106.582 21.757C106.382 21.601 106.088 21.523 105.698 21.523C105.308 21.523 105.009 21.601 104.801 21.757C104.601 21.9043 104.467 22.121 104.398 22.407C104.328 22.6843 104.294 23.018 104.294 23.408V28.023C104.294 28.413 104.328 28.7553 104.398 29.05C104.467 29.336 104.601 29.5613 104.801 29.726C105.009 29.882 105.308 29.96 105.698 29.96ZM112.497 31.117C111.891 31.117 111.384 30.987 110.976 30.727C110.578 30.467 110.274 30.1073 110.066 29.648C109.858 29.1887 109.737 28.6557 109.702 28.049L111.002 27.698C111.028 28.0707 111.085 28.4303 111.171 28.777C111.267 29.1237 111.418 29.4097 111.626 29.635C111.834 29.8517 112.125 29.96 112.497 29.96C112.879 29.96 113.165 29.856 113.355 29.648C113.555 29.4313 113.654 29.1237 113.654 28.725C113.654 28.2483 113.546 27.867 113.329 27.581C113.113 27.2863 112.84 26.9917 112.51 26.697L110.742 25.137C110.396 24.8337 110.14 24.5043 109.975 24.149C109.811 23.785 109.728 23.3387 109.728 22.81C109.728 22.0387 109.949 21.4407 110.391 21.016C110.833 20.5913 111.436 20.379 112.198 20.379C112.614 20.379 112.978 20.4353 113.29 20.548C113.611 20.652 113.875 20.8167 114.083 21.042C114.3 21.2673 114.469 21.5533 114.59 21.9C114.72 22.238 114.807 22.6367 114.85 23.096L113.602 23.434C113.576 23.0873 113.524 22.771 113.446 22.485C113.368 22.1903 113.23 21.9563 113.03 21.783C112.84 21.601 112.562 21.51 112.198 21.51C111.834 21.51 111.548 21.6097 111.34 21.809C111.141 21.9997 111.041 22.2857 111.041 22.667C111.041 22.9877 111.093 23.252 111.197 23.46C111.31 23.668 111.488 23.8803 111.73 24.097L113.511 25.657C113.91 26.0037 114.261 26.4197 114.564 26.905C114.868 27.3817 115.019 27.9493 115.019 28.608C115.019 29.128 114.911 29.5787 114.694 29.96C114.478 30.3327 114.179 30.6187 113.797 30.818C113.425 31.0173 112.991 31.117 112.497 31.117Z" fill="white"/>
<circle cx="24.5" cy="24.5" r="24.5" fill="#FFFCFC"/>
<path d="M16.3332 34.7083C15.7207 34.7083 15.3123 34.5042 14.904 34.0958C14.0873 33.2792 14.0873 32.0542 14.904 31.2375L31.2373 14.9042C32.054 14.0875 33.279 14.0875 34.0957 14.9042C34.9123 15.7208 34.9123 16.9458 34.0957 17.7625L17.7623 34.0958C17.354 34.5042 16.9457 34.7083 16.3332 34.7083Z" fill="#FB8500"/>
<path d="M32.6665 34.7083C32.054 34.7083 31.6457 34.5042 31.2373 34.0958L14.904 17.7625C14.0873 16.9458 14.0873 15.7208 14.904 14.9042C15.7207 14.0875 16.9457 14.0875 17.7623 14.9042L34.0957 31.2375C34.9123 32.0542 34.9123 33.2792 34.0957 34.0958C33.6873 34.5042 33.279 34.7083 32.6665 34.7083Z" fill="#FB8500"/>
</svg>
