<svg width="48" height="48" viewBox="0 0 48 48" fill="none" xmlns="http://www.w3.org/2000/svg">
<circle cx="24" cy="24" r="22.5" fill="#FFFCFC" stroke="#023047" stroke-width="3"/>
<path d="M23.9998 24C25.5781 24 27.1209 23.532 28.4332 22.6551C29.7455 21.7783 30.7683 20.5319 31.3723 19.0738C31.9763 17.6156 32.1344 16.0111 31.8264 14.4632C31.5185 12.9152 30.7585 11.4933 29.6425 10.3773C28.5265 9.26125 27.1046 8.50123 25.5566 8.19332C24.0086 7.88541 22.4041 8.04344 20.946 8.64742C19.4878 9.25141 18.2415 10.2742 17.3646 11.5865C16.4878 12.8988 16.0198 14.4417 16.0198 16.02C16.0198 18.1364 16.8605 20.1662 18.3571 21.6627C19.8536 23.1592 21.8833 24 23.9998 24ZM23.9998 10.32C25.1271 10.32 26.2292 10.6543 27.1665 11.2806C28.1039 11.9069 28.8345 12.7971 29.2659 13.8387C29.6973 14.8802 29.8102 16.0263 29.5903 17.132C29.3703 18.2377 28.8274 19.2533 28.0303 20.0505C27.2331 20.8476 26.2175 21.3905 25.1118 21.6105C24.0061 21.8304 22.86 21.7175 21.8185 21.2861C20.7769 20.8547 19.8867 20.1241 19.2604 19.1867C18.6341 18.2494 18.2998 17.1473 18.2998 16.02C18.2998 14.5082 18.9003 13.0584 19.9693 11.9895C21.0382 10.9205 22.488 10.32 23.9998 10.32Z" fill="#57CC99"/>
<path d="M25.1398 26.28H22.8598C19.534 26.28 16.3444 27.6011 13.9927 29.9528C11.641 32.3046 10.3198 35.4942 10.3198 38.82C10.3198 39.1223 10.4399 39.4123 10.6537 39.6261C10.8675 39.8399 11.1575 39.96 11.4598 39.96H36.5398C36.8422 39.96 37.1321 39.8399 37.3459 39.6261C37.5597 39.4123 37.6798 39.1223 37.6798 38.82C37.6798 35.4942 36.3587 32.3046 34.0069 29.9528C31.6552 27.6011 28.4656 26.28 25.1398 26.28ZM12.6682 37.68C12.9485 35.1727 14.1428 32.8566 16.0229 31.1742C17.9029 29.4919 20.3369 28.5612 22.8598 28.56H25.1398C27.6627 28.5612 30.0967 29.4919 31.9768 31.1742C33.8568 32.8566 35.0511 35.1727 35.3314 37.68H12.6682Z" fill="#57CC99"/>
</svg>
