<svg width="48" height="48" viewBox="0 0 48 48" fill="none" xmlns="http://www.w3.org/2000/svg">
<path d="M22 32C21.4 32 21 31.8 20.6 31.4L14.6 25.4C13.8 24.6 13.8 23.4 14.6 22.6C15.4 21.8 16.6 21.8 17.4 22.6L23.4 28.6C24.2 29.4 24.2 30.6 23.4 31.4C23 31.8 22.6 32 22 32Z" fill="#57CC99"/>
<path d="M22 32C21.4 32 21 31.8 20.6 31.4C19.8 30.6 19.8 29.4 20.6 28.6L32.6 16.6C33.4 15.8 34.6 15.8 35.4 16.6C36.2 17.4 36.2 18.6 35.4 19.4L23.4 31.4C23 31.8 22.6 32 22 32Z" fill="#57CC99"/>
<circle cx="24" cy="24" r="22.5" stroke="#023047" stroke-width="3"/>
</svg>
